HIERARCHY
ROOT Hips
{
	OFFSET 0.00000 0.00000 0.00000
	CHANNELS 6 Xposition Yposition Zposition Yrotation Zrotation Xrotation 
	JOINT Lumbar
	{
		OFFSET 0 0 0
		CHANNELS 3 Zrotation Xrotation Yrotation
		JOINT Neck
		{
			OFFSET 0.00 0.2701 0.00
			CHANNELS 3 Zrotation Xrotation Yrotation
			End Site
			{
				OFFSET 0.00 0.1379 0.00
			}
		}
		JOINT RightShoulder
		{
			OFFSET 0.0119 0.2289 0.1181
			CHANNELS 3 Zrotation Xrotation Yrotation
			JOINT RightElbow
			{
				OFFSET 0.00 -0.1475 0.00
				CHANNELS 2 Zrotation Yrotation
				JOINT RightWrist
				{
					OFFSET 0.00 -0.1605 0.00
					CHANNELS 2 Zrotation Xrotation
					End Site
					{
						OFFSET 0.0040 -0.1068 0.0006
					}
				}
			}
		}
		JOINT LeftShoulder
		{
			OFFSET 0.0119 0.2289 -0.1181
			CHANNELS 3 Zrotation Xrotation Yrotation
			JOINT LeftElbow
			{
				OFFSET 0.00 -0.1475 0.00
				CHANNELS 2 Zrotation Yrotation
				JOINT LeftWrist
				{
					OFFSET 0.00 -0.1605 0.00
					CHANNELS 2 Zrotation Xrotation
					End Site
					{
						OFFSET 0.0040 -0.1068 -0.0006
					}
				}
			}
		}
	}
	JOINT RightHip
	{
		OFFSET 0.0316 -0.0424 0.0458
		CHANNELS 3 Zrotation Xrotation Yrotation
		JOINT RightKnee
		{
			OFFSET 0.00 -0.2438 0.00
			CHANNELS 1 Zrotation
			JOINT RightAnkle
			{
				OFFSET 0.00 -0.2449 0.00
				CHANNELS 3 Zrotation Xrotation Yrotation
				End Site
				{
					OFFSET 0.1237 -0.0542 0.0051
				}
			}
		}
	}
	JOINT LeftHip
	{
		OFFSET 0.0316 -0.0424 -0.0458
		CHANNELS 3 Zrotation Xrotation Yrotation
		JOINT LeftKnee
		{
			OFFSET 0.00 -0.2438 0.00
			CHANNELS 1 Zrotation
			JOINT LeftAnkle
			{
				OFFSET 0.00 -0.2449 0.00
				CHANNELS 3 Zrotation Xrotation Yrotation
				End Site
				{
					OFFSET 0.1237 -0.0542 -0.0051
				}
			}
		}
	}
}
MOTION
Frames: 19
Frame Time: 0.02
0.00146 0.00021 -5e-05 17.06857 -29.0619 -6.7868 47.5573 0.39792 -8.14963 -2.71647 6.41548 -0.33156 -35.12807 -0.3373 -29.12945 24.69846 157.97016 22.88555 10.87557 -49.02121 21.84744 -9.15383 47.28941 -107.95532 17.23699 -1.30662 42.83432 1.78573 -2.27025 -18.99225 -6.17346 -2.83815 -2.1215 46.24283 4.42392 8.07733 -25.37954 -6.14389 2.94713 2.12699
0.00117 0.00017 2e-05 17.12002 -29.02951 -6.75731 47.53517 0.4355 -8.16098 -2.69588 6.29009 -0.33236 -34.5643 -1.18328 -26.92719 24.99572 151.44523 21.11455 9.92637 -48.11189 21.67554 -9.22632 47.17902 -108.09594 17.29507 -1.32172 42.83037 1.71417 -2.53341 -19.00131 -6.17194 -2.82812 -2.11161 46.25247 4.32625 7.76665 -25.37906 -6.14975 2.97129 2.14298
0.00087 0.00013 9e-05 17.1715 -28.99715 -6.72784 47.51301 0.47306 -8.17223 -2.6753 6.16485 -0.33315 -34.00096 -2.02674 -24.73393 25.29283 144.94874 19.35133 8.98128 -47.20229 21.50422 -9.30028 47.06908 -108.23556 17.35255 -1.33676 42.8264 1.64271 -2.79597 -19.01034 -6.17043 -2.81812 -2.10176 46.26208 4.22875 7.45678 -25.37857 -6.15561 2.99537 2.15892
0.00058 9e-05 0.00016 17.22282 -28.96485 -6.69843 47.49094 0.51053 -8.18354 -2.65477 6.03981 -0.33394 -33.43873 -2.87009 -22.53893 25.58932 138.44555 17.58625 8.03524 -46.29528 21.3329 -9.37292 46.95899 -108.37568 17.41039 -1.35181 42.82246 1.57136 -3.05835 -19.01938 -6.16891 -2.80812 -2.09191 46.27168 4.13136 7.14703 -25.37808 -6.16146 3.01945 2.17486
0.00029 5e-05 0.00023 17.27403 -28.93256 -6.66902 47.46892 0.54803 -8.19496 -2.63424 5.91471 -0.33473 -32.87653 -3.71604 -20.33377 25.88563 131.91 15.81229 7.08452 -45.3897 21.16086 -9.44318 46.84859 -108.51694 17.46893 -1.36694 42.81856 1.49993 -3.32123 -19.02844 -6.1674 -2.79809 -2.08203 46.28134 4.03382 6.83652 -25.37761 -6.16732 3.04361 2.19085
-0 1e-05 0.0003 17.32608 -28.90004 -6.63942 47.44646 0.58572 -8.20585 -2.61356 5.78919 -0.33553 -32.31082 -4.5543 -18.16543 26.18436 125.49546 14.07162 6.15125 -44.47169 20.991 -9.52473 46.73969 -108.65308 17.52418 -1.38177 42.81445 1.42841 -3.5831 -19.03741 -6.16587 -2.78816 -2.07223 46.29083 3.93641 6.52801 -25.37708 -6.17316 3.06754 2.20667
-0.00029 -3e-05 0.00037 17.37638 -28.868 -6.61025 47.42497 0.62291 -8.21782 -2.59322 5.66465 -0.3363 -31.75286 -5.40673 -15.92644 26.478 118.84715 12.26663 5.18428 -43.57975 20.81729 -9.58423 46.62747 -108.7995 17.58609 -1.3972 42.81075 1.35718 -3.84675 -19.04655 -6.16439 -2.77804 -2.06227 46.30062 3.83889 6.21584 -25.37666 -6.17903 3.0919 2.22281
-0.00058 -7e-05 0.00044 17.4283 -28.83555 -6.58065 47.40248 0.66068 -8.22872 -2.57254 5.53921 -0.33712 -31.18766 -6.24679 -13.75069 26.77617 112.40954 10.51958 4.24769 -42.66372 20.64645 -9.66268 46.51911 -108.93621 17.64164 -1.41208 42.80673 1.28564 -4.10869 -19.05554 -6.16286 -2.76809 -2.05246 46.3102 3.74139 5.90697 -25.37614 -6.18489 3.11588 2.23867
-0.00088 -0.00011 0.0005 17.48221 -28.80246 -6.55065 47.37913 0.69871 -8.23861 -2.55152 5.41255 -0.3379 -30.61353 -7.06934 -11.65931 27.08078 106.24763 8.84848 3.35082 -41.71749 20.48176 -9.77014 46.41223 -109.06191 17.69025 -1.42626 42.80205 1.21386 -4.36893 -19.06432 -6.16125 -2.75836 -2.04282 46.31926 3.64416 5.60229 -25.37551 -6.19069 3.13934 2.25416
-0.00115 -0.00015 0.00058 17.52472 -28.77265 -6.52331 47.36181 0.73392 -8.25522 -2.5327 5.29252 -0.33862 -30.09045 -7.98547 -9.10374 27.35109 98.55397 6.75581 2.23319 -40.94265 20.28966 -9.72828 46.2871 -109.25357 17.78131 -1.44437 42.80036 1.14384 -4.64017 -19.07426 -6.16004 -2.7474 -2.03219 46.33051 3.54611 5.27398 -25.37555 -6.19666 3.16561 2.27167
-0.00148 -0.00019 0.00063 17.59124 -28.73617 -6.49015 47.3311 0.77592 -8.25706 -2.50909 5.15882 -0.33963 -29.46005 -8.7087 -7.51387 27.69186 94.05674 5.5426 1.57631 -39.80813 20.15028 -9.99006 46.2067 -109.30444 17.78122 -1.45425 42.79289 1.06988 -4.8874 -19.08174 -6.15804 -2.739 -2.02365 46.33765 3.44936 4.99527 -25.37415 -6.20238 3.18607 2.28498
-0.00198 -0.00024 0.00061 17.72454 -28.67955 -6.44268 47.26868 0.83005 -8.22311 -2.47333 4.98459 -0.34009 -28.52782 -8.85982 -8.71395 28.2428 98.71011 6.84885 2.23775 -37.66053 20.20046 -11.19002 46.19984 -108.97797 17.5416 -1.44065 42.76528 0.98679 -5.07466 -19.08254 -6.15337 -2.73805 -2.02088 46.32961 3.35972 4.85716 -25.36899 -6.20663 3.18943 2.28596
-0.00254 -0.0003 0.00055 17.88166 -28.61675 -6.38904 47.19178 0.89232 -8.17357 -2.4325 4.79728 -0.34105 -27.48877 -8.82478 -10.85891 28.86062 106.50388 9.01864 3.35207 -35.15727 20.29641 -12.67726 46.24745 -108.50835 17.20865 -1.41889 42.7329 0.89941 -5.23662 -19.08088 -6.14802 -2.7396 -2.0202 46.31836 3.27089 4.76892 -25.36237 -6.21076 3.18706 2.28279
-0.00309 -0.00036 0.00051 18.02743 -28.5578 -6.33719 47.11836 0.95494 -8.12794 -2.39343 4.6178 -0.34265 -26.50387 -8.90338 -12.47865 29.43785 112.61158 10.72385 4.22362 -32.83284 20.3406 -13.96217 46.30169 -108.09848 16.91127 -1.40149 42.70521 0.8129 -5.40644 -19.08028 -6.1433 -2.73972 -2.01854 46.3109 3.17913 4.65375 -25.35631 -6.21549 3.1882 2.28211
-0.00357 -0.00041 0.00047 18.17592 -28.49382 -6.28973 47.05846 0.99997 -8.09519 -2.35697 4.42991 -0.34065 -25.4967 -8.86068 -14.50017 30.06143 119.81442 12.73495 5.25122 -30.43213 20.51076 -15.54315 46.22172 -107.71113 16.64192 -1.38153 42.66589 0.73099 -5.59201 -19.07985 -6.13718 -2.74102 -2.01701 46.29281 3.09744 4.55298 -25.35067 -6.21798 3.18598 2.27914
-0.0042 -0.00047 0.00042 18.32381 -28.43962 -6.23152 46.96642 1.08419 -8.03252 -2.31348 4.25694 -0.3462 -24.50854 -9.02445 -15.91459 30.60035 125.48589 14.31409 6.06227 -28.10971 20.43542 -16.58497 46.43647 -107.24241 16.2929 -1.3647 42.65086 0.63843 -5.73822 -19.07856 -6.13386 -2.74052 -2.01572 46.29708 2.9959 4.4387 -25.34383 -6.22505 3.18882 2.27963
-0.00519 -0.00055 0.00035 18.46904 -28.40752 -6.14633 46.79363 1.26922 -7.88607 -2.25526 4.12447 -0.37309 -23.61681 -9.82177 -15.36716 30.92259 126.09519 14.48002 6.15151 -26.06106 19.61927 -15.98526 47.43154 -106.59033 15.74056 -1.36071 42.69427 0.51779 -5.78733 -19.07474 -6.13811 -2.73385 -2.0144 46.35591 2.83115 4.23342 -25.3337 -6.24525 3.21217 2.29361
-0.00633 -0.00064 0.00027 18.61188 -28.38679 -6.05031 46.58799 1.49439 -7.71105 -2.18954 4.00833 -0.40743 -22.74455 -10.82973 -14.18543 31.15093 125.06138 14.18187 6.0086 -24.10968 18.56424 -14.84802 48.72437 -105.86105 15.11294 -1.35975 42.76434 0.3865 -5.79702 -19.07028 -6.14528 -2.72534 -2.01328 46.43907 2.64771 4.01955 -25.32248 -6.27002 3.24001 2.31076
-0.00741 -0.00072 0.0002 18.7527 -28.36489 -5.95845 46.39473 1.70478 -7.55228 -2.12491 3.88717 -0.43794 -21.85179 -11.72995 -13.33005 31.40047 124.8274 14.1031 5.98145 -22.13248 17.65226 -14.01124 49.89501 -105.1619 14.52321 -1.35592 42.82837 0.25995 -5.82086 -19.06658 -6.15133 -2.71813 -2.01224 46.516 2.4785 3.83811 -25.31198 -6.29239 3.26225 2.32445
